inDegrees=no
nColumns=24
nRows=24
DataType=double
version=3
OpenSimVersion=4.5
endheader
time	pelvis_tilt	pelvis_list	pelvis_rotation	pelvis_tz	pelvis_ty	pelvis_tx	hip_flexion_r	hip_adduction_r	hip_rotation_r	knee_angle_r	ankle_angle_r	subtalar_angle_r	mtp_angle_r	hip_flexion_l	hip_adduction_l	hip_rotation_l	knee_angle_l	ankle_angle_l	subtalar_angle_l	mtp_angle_l	lumbar_extension	lumbar_bending	lumbar_rotation
0.8700000000000001	-0.07928401184307497	-0.02381665257565425	-0.0449438351145924	0.002536389999999999	0.96293356	0.9716477100000001	0.1791678254007534	0.07768457411393984	-0.2137433794264679	-0.2434377292452277	0.1679944125343865	-0.1319051573122305	0	0.5068796163837658	-0.1677730773835643	-0.2893935108468864	-1.002787670370751	0.003405252038772793	-0.3603758872900131	0	-0.05776310922245721	-0.002939921080252325	0.1324392390589151
0.8799999999999999	-0.07619486285996359	-0.0185727005689283	-0.06070161556319052	0.004467430000000022	0.96325447	0.98137557	0.162715469782051	0.07446879973115254	-0.2022744016835268	-0.2412011175595321	0.1783557242233993	-0.1207071190718484	0	0.5155850767900793	-0.1667760083064789	-0.3050153120965863	-0.967215921503373	0.02344185385754855	-0.3536482055431929	0	-0.06217794836330953	-0.01130701031569137	0.1525260304383258
0.8900000000000001	-0.07758546061571639	-0.01920071610200908	-0.06650329213551201	0.005505090000000018	0.96300301	0.9913713200000001	0.1476932109470268	0.07631767308448238	-0.2013140864479616	-0.2329448745339531	0.1882786662765776	-0.117884005897115	0	0.5306071116993605	-0.1664226683192748	-0.3084220932183168	-0.9291233717807245	0.02727360694417637	-0.3502625779865295	0	-0.06108746804292686	-0.01266578142696011	0.1622035682030995
0.8999999999999999	-0.07771341219828139	-0.01837374742425477	-0.07452420929632655	0.00682271000000001	0.96271177	1.00145895	0.1313390430141854	0.07689247301355011	-0.1973795432422351	-0.2247364688887761	0.1960531415308726	-0.1111106221802326	0	0.5416490366958699	-0.1659803413238944	-0.3152459878109495	-0.887555841323159	0.03538647466236257	-0.346083597230271	0	-0.06064327389431267	-0.01679714349257181	0.1735613038955062
0.9100000000000001	-0.07718371205304746	-0.01770734310566806	-0.0835433294299351	0.00790121000000002	0.96222573	1.01154786	0.1151452954487447	0.07704169674473345	-0.1932636383360778	-0.2182057243351644	0.2068827990601557	-0.1066528552701641	0	0.5501230531788666	-0.1659528342367513	-0.3253508259843756	-0.8420920013660602	0.03822410216968843	-0.3446740813691323	0	-0.06174257336340565	-0.01862274933804454	0.184090060902159
0.9199999999999999	-0.07037984687858158	-0.01476383094854426	-0.09637826853916713	0.009249710000000022	0.96223974	1.02149871	0.09526972102288356	0.07337207758976597	-0.1841306570860275	-0.2175647286054246	0.2163447588171779	-0.09530165793020116	0	0.5476511437083329	-0.1649160557775903	-0.3420639906910596	-0.7911450872162404	0.03770658673919796	-0.3435773251938253	0	-0.07028470166952722	-0.02472781873360328	0.2003371527108576
0.9299999999999997	-0.07192371466783463	-0.0189915553276421	-0.1005919502216294	0.009880890000000003	0.96109612	1.03192693	0.0803051433997756	0.07810725934845124	-0.1844525642170019	-0.2108854176116258	0.2272241872026085	-0.09442043630394732	0	0.5578717462549182	-0.1669561259362188	-0.3463038508005558	-0.7435476737038315	0.04047959569989675	-0.3460080668851606	0	-0.06863695988466426	-0.02067230989901373	0.2058316022615112
0.9399999999999999	-0.06666931244234225	-0.01960160224146058	-0.1093687281779722	0.01099337	0.96059488	1.04221446	0.05934804760311516	0.07822553141067971	-0.1774638372391523	-0.2057721813053965	0.2341085806667019	-0.08395509164687555	0	0.555674839413442	-0.1669070401218028	-0.3594738417913879	-0.6891706192946384	0.03593944209328417	-0.3503430638449853	0	-0.07436407037672199	-0.02319342508808308	0.2181019695725882
0.9499999999999997	-0.06920273788026536	-0.02675928815286108	-0.1126840158375001	0.01121155000000001	0.95876529	1.05231655	0.04863236304104695	0.08497021737680333	-0.1777191153787343	-0.206057845103657	0.2414360568537418	-0.08441671186087332	0	0.5643096230607617	-0.1697849341203014	-0.3593544398030017	-0.6378535578114509	0.03916843350543098	-0.3472731272546324	0	-0.0726996959531534	-0.0148098737326063	0.2211072609127764
0.96	-0.06412765828081309	-0.02766052324847693	-0.1203217901098658	0.01222378000000002	0.95787769	1.06304879	0.02579563700084634	0.08492395655231459	-0.1710038865561271	-0.1979428159697251	0.2550754874826865	-0.07672304587454447	0	0.5590642745804015	-0.1700060474397757	-0.37554003336471	-0.5821428803911154	0.03849470360197124	-0.3213947391324942	0	-0.07764342134457292	-0.0165763328131899	0.2305223545651252
0.9699999999999998	-0.06710453462301924	-0.03678826715137154	-0.1219877913325314	0.01212009	0.95565572	1.07316784	0.0163592117598467	0.09325655144948307	-0.1722929598635796	-0.1998490664986155	0.2618064677272601	-0.07740744864091308	0	0.5674322863968831	-0.1731856196796193	-0.3771992704116253	-0.5301881717668908	0.03919539395545239	-0.3160787172092659	0	-0.07594868395160616	-0.005899666308280502	0.2331691114691895
0.98	-0.06896431015297871	-0.04007004248412718	-0.126411062794483	0.01252262000000001	0.95373737	1.08365662	0.002233229412138187	0.09585798337460362	-0.1678465669151805	-0.1946730068914277	0.2742188486398475	-0.07591395155042562	0	0.5693372469529234	-0.1735224139455145	-0.3900800786713591	-0.4744799828370029	0.02550629369945684	-0.2678392796191217	0	-0.07404901942264816	-0.00267495374532788	0.2378906049596173
0.9899999999999998	-0.07072488021123162	-0.04461974783615782	-0.1302825097209587	0.01257449000000002	0.9516462	1.09427226	-0.009902464803196417	0.09893186388546719	-0.1640345927723009	-0.1939759066802179	0.284474670010876	-0.07488984034190976	0	0.5713209963837877	-0.1731792129250011	-0.398298585584115	-0.421805220478444	0.02755779349575792	-0.2189644964536251	0	-0.0717573438207826	0.002023309412755793	0.2433298966953871
1	-0.07370005829012931	-0.05123448107333862	-0.1345101682582539	0.01239429	0.9491335	1.10462307	-0.01848532350900591	0.1038709725319494	-0.159983767703292	-0.1984672029360136	0.3014700483489551	-0.07400451160686014	0	0.5750313509998979	-0.1752775060457457	-0.408415363380421	-0.3719914990445934	0.02562649435050877	-0.1686825897497954	0	-0.06976519935621626	0.01039595874359291	0.2481024285000651
1.01	-0.07592101808919276	-0.05706510577137523	-0.1360652653868992	0.01180463000000001	0.94667163	1.1153711	-0.02759384815837977	0.1071548552472031	-0.1603901660488226	-0.2031374334883164	0.3088499976854234	-0.07092237795756266	0	0.5778205323559786	-0.175092294148985	-0.4163319114028881	-0.3258639293970499	0.02647314990545979	-0.1165302663955469	0	-0.06765736888377415	0.01848122739578441	0.250170429860845
1.02	-0.079631121007445	-0.06280636727943502	-0.1372870129808625	0.01120678	0.9439596	1.12588421	-0.03472441752094016	0.1108773756808644	-0.1605280631167592	-0.2088290963432661	0.3171952196906641	-0.07081478765942226	0	0.5808325563037564	-0.175013542624207	-0.422028901002715	-0.2816344869924593	0.02463078837556913	-0.06595047335270506	0	-0.0643985438605913	0.02595640381610359	0.2509071947737014
1.03	-0.08404099180394513	-0.06758033060737391	-0.1393171826082978	0.01062607000000002	0.94138426	1.13651081	-0.03926592445585474	0.1129006077755343	-0.1598835397275353	-0.2185384401156635	0.3217691352953931	-0.0696712786513104	0	0.5821382023851212	-0.1738074415712626	-0.4250062112243351	-0.236226101381684	0.01499204893100144	-0.02526818628358889	0	-0.05989585968049223	0.032583141478575	0.253843804266231
1.04	-0.08652029754559826	-0.07384362113981581	-0.1408150328909456	0.01017790000000002	0.9391113	1.14715499	-0.04604140623303103	0.1165761793759157	-0.1616246646558945	-0.2272575046653645	0.3323421021901307	-0.06522978117693019	0	0.5819366863206201	-0.1744491944248319	-0.4227302842519091	-0.1966734840814419	0.008878425502245756	0.01192173220793752	0	-0.05866645848203368	0.0407294842627486	0.2545202574069227
1.05	-0.08938517115261997	-0.0790074399160056	-0.144030609541356	0.009662110000000002	0.93672587	1.1580012	-0.05231487860839034	0.118477408767081	-0.161766857677252	-0.2370918237860485	0.3337085585096947	-0.06486186018555619	0	0.5831135525849949	-0.1754366566861156	-0.417290608194638	-0.1667452734074171	0.008953343411321762	0.02067245563400627	0	-0.05623699332451336	0.04777257301081005	0.2553690611131171
1.06	-0.09102975501131227	-0.08257126745567341	-0.1444898481951838	0.009286270000000013	0.9347858100000001	1.16897848	-0.05944431979012224	0.1190159873545833	-0.163941668475865	-0.2462610974125648	0.3396265408267444	-0.05992548263028756	0	0.583353017517955	-0.1741861474756835	-0.4095798727136916	-0.1412535882883324	-0.0117005211500252	0.04359653645046676	0	-0.05448137797457241	0.05045742643818817	0.2569977458224104
1.07	-0.09304241976884568	-0.08613903073156785	-0.1472751610066214	0.009011940000000024	0.93296972	1.18043824	-0.06695583012574359	0.1191153688456528	-0.1648990773891598	-0.2546044859494264	0.3409954826696962	-0.05897336119196164	0	0.5835677041860575	-0.1745240116284101	-0.4079261509072126	-0.1245583948878903	-0.01345345305624121	0.0463869128334863	0	-0.0512207234972676	0.05506162280730757	0.2570702284735811
1.08	-0.09429532153062824	-0.08900097400963403	-0.1505324268292226	0.008711410000000003	0.93137218	1.19220129	-0.07489172093417881	0.1178432737520978	-0.1678802744590243	-0.2645853174323007	0.3404385786486468	-0.05642199019671021	0	0.5817588917241145	-0.1747317176776363	-0.4071876935485805	-0.1130808833575715	-0.01920339070958577	0.04675160793280386	0	-0.04872856541488396	0.05871479153594331	0.258542295364315
1.09	-0.09574362951751601	-0.09075573074976631	-0.1514868186298955	0.00870783	0.92995878	1.20438548	-0.08406078634291535	0.1167357183520442	-0.1677124643675706	-0.271989281103013	0.3392369152698584	-0.05565463367632355	0	0.5819721852704082	-0.1749164696801391	-0.4074739470935952	-0.1130163251993366	-0.02028969480613426	0.04592396093326923	0	-0.04406202204515895	0.05900544715039738	0.2584805798238328
1.1	-0.09414720294212368	-0.09179746521384377	-0.1577397618596046	0.008262630000000021	0.92918004	1.21629835	-0.09111647113218846	0.1107081557124409	-0.1720302167762539	-0.2887829285265602	0.3261039362547429	-0.04672633050378015	0	0.5756525070484315	-0.1756829090300039	-0.4131441052232324	-0.1134083383666393	-0.02015794339155971	0.03441073228700602	0	-0.04553425997815959	0.06173058382410908	0.2598044255005058
